<svg xmlns="http://www.w3.org/2000/svg" xmlns:xlink="http://www.w3.org/1999/xlink" width="1920" height="1080" viewBox="0 0 1920 1080"><defs><linearGradient id="a" x1="-0.057" y1="-0.055" x2="1.054" y2="1.053" gradientUnits="objectBoundingBox"><stop offset="0" stop-color="#3a3a3a"/><stop offset="1" stop-color="#0e0e0e"/></linearGradient><filter id="b" x="1264.5" y="446.5" width="837" height="837" filterUnits="userSpaceOnUse"><feOffset input="SourceAlpha"/><feGaussianBlur stdDeviation="12.5" result="c"/><feFlood flood-color="#fc8b63" flood-opacity="0.502"/><feComposite operator="in" in2="c"/><feComposite in="SourceGraphic"/></filter><filter id="d" x="956.5" y="-266.5" width="638" height="638" filterUnits="userSpaceOnUse"><feOffset input="SourceAlpha"/><feGaussianBlur stdDeviation="12.5" result="e"/><feFlood flood-color="#fba46d"/><feComposite operator="in" in2="e"/><feComposite in="SourceGraphic"/></filter><filter id="f" x="52.5" y="54.5" width="337" height="337" filterUnits="userSpaceOnUse"><feOffset input="SourceAlpha"/><feGaussianBlur stdDeviation="12.5" result="g"/><feFlood flood-color="#f7ff8d" flood-opacity="0.502"/><feComposite operator="in" in2="g"/><feComposite in="SourceGraphic"/></filter><filter id="h" x="36.5" y="811.5" width="574" height="574" filterUnits="userSpaceOnUse"><feOffset input="SourceAlpha"/><feGaussianBlur stdDeviation="12.5" result="i"/><feFlood flood-color="#ff4d4d" flood-opacity="0.502"/><feComposite operator="in" in2="i"/><feComposite in="SourceGraphic"/></filter><linearGradient id="j" x1="0.011" y1="-0.207" x2="1.175" y2="1.123" gradientUnits="objectBoundingBox"><stop offset="0" stop-color="#ff4d4d"/><stop offset="1" stop-color="#f7ff8d"/></linearGradient><filter id="k" x="-203.445" y="267.5" width="1515.945" height="964.198" filterUnits="userSpaceOnUse"><feOffset input="SourceAlpha"/><feGaussianBlur stdDeviation="12.5" result="l"/><feFlood flood-color="#fba46d" flood-opacity="0.502"/><feComposite operator="in" in2="l"/><feComposite in="SourceGraphic"/></filter><clipPath id="n"><rect width="1920" height="1080"/></clipPath></defs><g id="m" clip-path="url(#n)"><rect width="1920" height="1080" fill="url(#a)"/><g transform="matrix(1, 0, 0, 1, 0, 0)" filter="url(#b)"><circle cx="381" cy="381" r="381" transform="translate(1302 484)" fill="#fc8b63"/></g><g transform="matrix(1, 0, 0, 1, 0, 0)" filter="url(#d)"><circle cx="281.5" cy="281.5" r="281.5" transform="translate(994 -229)" fill="#fba46d"/></g><g transform="matrix(1, 0, 0, 1, 0, 0)" filter="url(#f)"><circle cx="131" cy="131" r="131" transform="translate(90 92)" fill="#f7ff8d"/></g><g transform="matrix(1, 0, 0, 1, 0, 0)" filter="url(#h)"><circle cx="249.5" cy="249.5" r="249.5" transform="translate(74 849)" fill="#ff4d4d"/></g><g transform="matrix(1, 0, 0, 1, 0, 0)" filter="url(#k)"><path d="M-98.526,734.841S135.987,599.367,326.368,587.052,513.67,640.42,663,685.578s240.157,13.342,260.684,82.105S688.657,856.459,745.1,960.63s404.368,223.736,404.368,223.736l178.579-22.579S1187.445,1088.919,1170,960.63s169.342-218.6,88.263-312S994.5,674.8,845.683,587.052,902.643,268.894,663,297.631-112.895,702-112.895,702Z" transform="translate(-53.05 9.83)" fill="url(#j)"/></g></g></svg>