<?xml version="1.0" encoding="UTF-8"?>
<svg xmlns="http://www.w3.org/2000/svg" xmlns:xlink="http://www.w3.org/1999/xlink" viewBox="0 0 480 480" width="480px" height="480px">
<g id="surface8378346">
<path style=" stroke:none;fill-rule:nonzero;fill:rgb(100%,30.19608%,30.19608%);fill-opacity:1;" d="M 80 48 C 62.511719 48 48 62.511719 48 80 L 48 256 C 48 273.488281 62.511719 288 80 288 L 192 288 L 192 352 L 128 352 L 128 304 L 112 288 L 96 304 L 96 352 L 128 384 L 192 384 L 192 400 C 192 417.679688 206.320312 432 224 432 L 400 432 C 417.679688 432 432 417.679688 432 400 L 432 224 C 432 206.320312 417.679688 192 400 192 L 288 192 L 288 80 C 288 62.511719 273.488281 48 256 48 Z M 80 80 L 256 80 L 256 192 L 224 192 C 206.320312 192 192 206.320312 192 224 L 192 256 L 80 256 Z M 192 224 L 192 208 C 188.085938 208 184.339844 207.515625 180.65625 206.9375 C 181.039062 206.660156 181.46875 206.441406 181.84375 206.15625 C 198.984375 193.128906 208 172.015625 208 144 L 224 144 L 224 128 L 176 128 L 176 104 L 160 104 L 160 128 L 112 128 L 112 144 L 192 144 C 192 168.785156 185.015625 183.664062 172.15625 193.4375 C 168.640625 196.109375 164.449219 198.351562 159.84375 200.28125 C 154.679688 197.726562 149.824219 194.835938 145.75 191.40625 C 134.277344 181.753906 128 169.46875 128 160 L 112 160 C 112 175.957031 121.179688 191.664062 135.4375 203.65625 C 136.382812 204.449219 137.539062 205.082031 138.53125 205.84375 C 130.507812 207.125 121.875 208 112 208 L 112 224 C 129.84375 224 145.730469 222.15625 159.3125 217.6875 C 169.214844 221.601562 180.191406 224 192 224 Z M 294.4375 255.625 L 329.5 255.625 L 367.40625 368.375 L 336.15625 368.375 L 329.125 343.59375 L 292.3125 343.59375 L 285.0625 368.375 L 256.625 368.375 Z M 310.125 281.03125 L 297.78125 322.96875 L 323.71875 322.96875 L 311.625 281.03125 Z M 310.125 281.03125 "/>
</g>
</svg>
